<svg width="28" height="22" viewBox="0 0 28 22" fill="none" xmlns="http://www.w3.org/2000/svg">
<path d="M3.33329 3.84467C3.51977 3.76929 3.74396 3.68603 4.0038 3.60205C4.9228 3.30499 6.28397 3.00001 7.99996 3.00001C9.71594 3.00001 11.0771 3.30499 11.9961 3.60205C12.256 3.68603 12.4801 3.7693 12.6666 3.84467V18.3505C11.5317 17.998 9.94684 17.6667 7.99996 17.6667C6.05307 17.6667 4.46825 17.998 3.33329 18.3505V3.84467ZM14 1.51372C13.699 1.38026 13.302 1.22164 12.8163 1.06464C11.6728 0.695026 10.034 0.333344 7.99996 0.333344C5.96594 0.333344 4.32712 0.695026 3.18362 1.06464C2.61191 1.24944 2.16309 1.43649 1.84915 1.58209C1.69211 1.65492 1.56856 1.7175 1.47998 1.7644C1.43569 1.78786 1.40011 1.80741 1.37343 1.82239L1.3401 1.84135L1.32847 1.8481L1.32392 1.85077L1.32197 1.85192C1.31935 1.85347 0.99343 2.04661 1.32022 1.85295C0.91507 2.09305 0.666626 2.52906 0.666626 3.00001V20.3333C0.666626 20.8124 0.923628 21.2546 1.33986 21.4918C1.75582 21.7288 2.26691 21.7246 2.6789 21.4809C2.67527 21.4829 2.67299 21.4843 2.67299 21.4843L2.67474 21.4833L2.67682 21.4821L2.6789 21.4809C2.68701 21.4763 2.70339 21.4674 2.72794 21.4544C2.77706 21.4284 2.85859 21.3868 2.97108 21.3346C3.1962 21.2302 3.54426 21.0839 4.0038 20.9354C4.9228 20.6383 6.28397 20.3333 7.99996 20.3333C9.71594 20.3333 11.0771 20.6383 11.9961 20.9354C12.4557 21.0839 12.8037 21.2302 13.0288 21.3346C13.1413 21.3868 13.2229 21.4284 13.272 21.4544C13.2965 21.4674 13.313 21.4765 13.3211 21.481C13.3247 21.4831 13.3269 21.4843 13.3269 21.4843M13.3269 21.4843L13.3252 21.4833L13.3231 21.4821L13.3211 21.481C13.7397 21.7283 14.2604 21.7285 14.6789 21.4809C14.687 21.4763 14.7034 21.4674 14.7279 21.4544C14.7771 21.4284 14.8586 21.3868 14.9711 21.3346C15.1962 21.2302 15.5443 21.0839 16.0038 20.9354C16.9228 20.6383 18.284 20.3333 20 20.3333C21.7159 20.3333 23.0771 20.6383 23.9961 20.9354C24.4557 21.0839 24.8037 21.2302 25.0288 21.3346C25.1413 21.3868 25.2229 21.4284 25.272 21.4544C25.2965 21.4674 25.313 21.4765 25.3211 21.481L25.3225 21.4817C25.7342 21.7246 26.2446 21.7285 26.6601 21.4918C27.0763 21.2546 27.3333 20.8124 27.3333 20.3333V3.00001C27.3333 2.52906 27.0848 2.09305 26.6797 1.85295L26.678 1.85192L26.676 1.85077L26.6715 1.8481L26.6598 1.84135L26.6265 1.82239C26.5998 1.80741 26.5642 1.78786 26.5199 1.7644C26.4314 1.7175 26.3078 1.65492 26.1508 1.58209C25.8368 1.43649 25.388 1.24944 24.8163 1.06464C23.6728 0.695026 22.034 0.333344 20 0.333344C17.9659 0.333344 16.3271 0.695026 15.1836 1.06464C14.6979 1.22164 14.3009 1.38026 14 1.51372M24.6666 3.84467V18.3505C23.5317 17.998 21.9468 17.6667 20 17.6667C18.0531 17.6667 16.4682 17.998 15.3333 18.3505V3.84467C15.5198 3.7693 15.744 3.68603 16.0038 3.60205C16.9228 3.30499 18.284 3.00001 20 3.00001C21.7159 3.00001 23.0771 3.30499 23.9961 3.60205C24.256 3.68603 24.4801 3.7693 24.6666 3.84467ZM25.3211 4.14768C25.3247 4.14972 25.3269 4.151 25.3269 4.151L25.3252 4.14999L25.3211 4.14768ZM25.3211 21.481L25.3255 21.4835L25.3225 21.4817" fill="#A1A1A1"/>
</svg>
