<svg width="21" height="21" viewBox="0 0 21 21" fill="none" xmlns="http://www.w3.org/2000/svg">
<path d="M2.83301 2H7.32295L8.77016 5.61803L6.44528 7.16795C6.16708 7.35342 5.99998 7.66565 5.99998 8C6.00252 8.09363 5.99998 8.001 5.99998 8.001L5.99998 8.00205L5.99999 8.00429L6.00002 8.00933L6.00017 8.02167C6.00032 8.03089 6.00057 8.04208 6.00099 8.05519C6.00184 8.0814 6.00337 8.1153 6.0061 8.15636C6.01158 8.23846 6.02189 8.34944 6.04128 8.48517C6.08004 8.75646 6.15526 9.12811 6.3013 9.56623C6.59453 10.4459 7.17071 11.5849 8.29288 12.7071C9.41504 13.8293 10.554 14.4054 11.4338 14.6987C11.8719 14.8447 12.2435 14.9199 12.5148 14.9587C12.6505 14.9781 12.7615 14.9884 12.8436 14.9939C12.8847 14.9966 12.9186 14.9981 12.9448 14.999C12.9579 14.9994 12.9691 14.9997 12.9783 14.9998L12.9906 15L12.9957 15L12.9979 15L12.999 15C12.999 15 13.1106 14.9939 13 15C13.3788 15 13.725 14.786 13.8944 14.4472L14.5641 13.1078L19 13.8471V18.167C16.8889 18.4723 11.1874 18.7732 6.70709 14.2929C2.22679 9.81259 2.5277 4.1111 2.83301 2ZM8.07363 8.48609L9.87956 7.28213C10.6665 6.75751 10.9784 5.75338 10.6271 4.87525L9.1799 1.25722C8.87617 0.497902 8.14076 0 7.32295 0H2.78076C1.87225 0 1.01707 0.631162 0.867924 1.6169C0.528614 3.8595 0.0667672 10.481 5.29288 15.7071C10.519 20.9332 17.1405 20.4714 19.3831 20.1321C20.3688 19.9829 21 19.1277 21 18.2192V13.8471C21 12.8694 20.2932 12.0351 19.3288 11.8743L14.8929 11.135C14.0268 10.9907 13.1679 11.4281 12.7753 12.2134L12.4288 12.9064C12.3199 12.8796 12.1983 12.8453 12.0662 12.8013C11.4459 12.5946 10.5849 12.1707 9.70709 11.2929C8.82925 10.4151 8.40543 9.55407 8.19867 8.93377C8.14279 8.76616 8.10257 8.61545 8.07363 8.48609Z" fill="#0D0D0D"/>
</svg>
