<svg width="23" height="21" viewBox="0 0 23 21" fill="none" xmlns="http://www.w3.org/2000/svg">
<path fill-rule="evenodd" clip-rule="evenodd" d="M17.8456 6.47978H22.4997C22.4997 2.7051 20.2607 0.5 16.4669 0.5H6.53282C2.73909 0.5 0.5 2.7051 0.5 6.43163V14.5684C0.5 18.2949 2.73909 20.5 6.53282 20.5H16.4669C20.2607 20.5 22.4997 18.2949 22.4997 14.5684V14.2217H17.8456C15.6856 14.2217 13.9345 12.4972 13.9345 10.37C13.9345 8.24276 15.6856 6.5183 17.8456 6.5183V6.47978ZM17.8466 8.13574H21.6794C22.133 8.13574 22.5008 8.49788 22.5008 8.9446V11.7563C22.4955 12.2009 22.1308 12.56 21.6794 12.5652H17.9346C16.8411 12.5797 15.8849 11.8424 15.6368 10.7934C15.5126 10.1423 15.687 9.47036 16.1132 8.95775C16.5394 8.44514 17.1739 8.14426 17.8466 8.13574ZM18.0118 11.0918H18.3736C18.838 11.0918 19.2144 10.7211 19.2144 10.2637C19.2144 9.80636 18.838 9.4356 18.3736 9.4356H18.0118C17.7897 9.43303 17.5758 9.51813 17.4178 9.6719C17.2598 9.82568 17.1709 10.0353 17.1709 10.2541C17.1709 10.713 17.5458 11.0866 18.0118 11.0918ZM5.71197 6.48045H11.9208C12.3852 6.48045 12.7617 6.10969 12.7617 5.65234C12.7617 5.19498 12.3852 4.82422 11.9208 4.82422H5.71197C5.25136 4.82419 4.87645 5.18912 4.87109 5.64271C4.87106 6.10165 5.24599 6.47518 5.71197 6.48045Z" fill="#9CA2AA"/>
</svg>
