<svg width="16" height="20" viewBox="0 0 16 20" fill="none" xmlns="http://www.w3.org/2000/svg">
<path d="M8.65079 0.240762C8.2763 -0.0802297 7.72331 -0.0798997 7.34882 0.241092L7.26036 0.318263C7.20552 0.366572 7.12656 0.436828 7.02692 0.527314C6.82772 0.708221 6.54544 0.970386 6.20771 1.30007C5.5335 1.95823 4.63218 2.89147 3.72807 3.98931C2.8264 5.08419 1.90543 6.36267 1.206 7.71158C0.511056 9.05182 0 10.5279 0 12C0 16.4183 3.58172 20 8 20C12.4183 20 16 16.4183 16 12C16 10.5279 15.4889 9.05182 14.794 7.71158C14.0946 6.36267 13.1736 5.08419 12.2719 3.98931C11.3678 2.89147 10.4665 1.95823 9.79229 1.30007C9.45456 0.970386 9.17228 0.708221 8.97308 0.527314L8.65079 0.240762ZM2 12C2 10.9721 2.36394 9.82322 2.9815 8.63221C3.59457 7.44987 4.4236 6.29084 5.27193 5.26073C6.11782 4.23357 6.9665 3.35431 7.60479 2.73122C7.7483 2.59112 7.88086 2.46428 8 2.35194C8.11914 2.46428 8.2517 2.59112 8.39521 2.73122C9.0335 3.35431 9.88218 4.23357 10.7281 5.26073C11.5764 6.29084 12.4054 7.44987 13.0185 8.63221C13.6361 9.82322 14 10.9721 14 12C14 15.3137 11.3137 18 8 18C4.68629 18 2 15.3137 2 12Z" fill="#0D0D0D"/>
<path d="M4.35964 12.0416C3.8303 12.1991 3.52889 12.7559 3.68643 13.2853C4.11874 14.7379 5.26213 15.8812 6.7147 16.3135C7.24404 16.4711 7.80086 16.1697 7.9584 15.6403C8.11594 15.111 7.81453 14.5542 7.2852 14.3966C6.47998 14.157 5.84298 13.52 5.60334 12.7148C5.4458 12.1854 4.88897 11.884 4.35964 12.0416Z" fill="#0D0D0D"/>
</svg>
