<svg width="13" height="22" viewBox="0 0 13 22" fill="none" xmlns="http://www.w3.org/2000/svg">
<path d="M8 14H6C5.73479 14 5.48043 14.1054 5.2929 14.2929C5.10536 14.4804 5 14.7348 5 15C5 15.2652 5.10536 15.5196 5.2929 15.7071C5.48043 15.8946 5.73479 16 6 16H8C8.26522 16 8.51958 15.8946 8.70711 15.7071C8.89465 15.5196 9 15.2652 9 15C9 14.7348 8.89465 14.4804 8.70711 14.2929C8.51958 14.1054 8.26522 14 8 14ZM10 7V4C10 3.73478 9.89465 3.48043 9.70711 3.29289C9.51958 3.10536 9.26522 3 9 3H8V2H9C9.26522 2 9.51958 1.89464 9.70711 1.70711C9.89465 1.51957 10 1.26522 10 0.999999C10 0.734783 9.89465 0.480429 9.70711 0.292892C9.51958 0.105356 9.26522 -9.06355e-07 9 -9.06355e-07H4.23584C3.37764 -0.00287674 2.53579 0.234752 1.80576 0.685943C1.07572 1.13713 0.486698 1.78384 0.105475 2.55273C-0.0124021 2.78989 -0.0314014 3.06412 0.0526445 3.31526C0.13669 3.56641 0.316919 3.77397 0.553796 3.89241C0.790672 4.01085 1.06486 4.0305 1.3162 3.94705C1.56755 3.8636 1.77553 3.68386 1.89453 3.44727C2.11058 3.01136 2.44446 2.64472 2.85828 2.38891C3.27211 2.13311 3.74934 1.99838 4.23584 2H6V3H5C4.73479 3 4.48043 3.10536 4.2929 3.29289C4.10536 3.48043 4 3.73478 4 4V7C3.20462 7.00087 2.44206 7.31722 1.87964 7.87964C1.31722 8.44206 1.00087 9.20462 1 10V19C1.00087 19.7954 1.31722 20.5579 1.87964 21.1204C2.44206 21.6828 3.20462 21.9991 4 22H10C10.7954 21.9991 11.5579 21.6828 12.1204 21.1204C12.6828 20.5579 12.9991 19.7954 13 19V10C12.9991 9.20462 12.6828 8.44206 12.1204 7.87964C11.5579 7.31722 10.7954 7.00087 10 7ZM6 5H8V7H6V5ZM11 19C10.9997 19.2651 10.8942 19.5193 10.7067 19.7067C10.5193 19.8942 10.2651 19.9997 10 20H4C3.73489 19.9997 3.48074 19.8942 3.29328 19.7067C3.10582 19.5193 3.00035 19.2651 3 19V10C3.00035 9.73489 3.10582 9.48073 3.29328 9.29327C3.48074 9.10581 3.73489 9.00034 4 9H10C10.2651 9.00034 10.5193 9.10581 10.7067 9.29327C10.8942 9.48073 10.9997 9.73489 11 10V19Z" fill="#0D0D0D"/>
</svg>
