<svg width="16" height="20" viewBox="0 0 16 20" fill="none" xmlns="http://www.w3.org/2000/svg">
<path d="M15.63 1.65C15.5138 1.55602 15.3781 1.48927 15.2327 1.45466C15.0873 1.42005 14.9361 1.41846 14.79 1.45C13.7214 1.67394 12.6183 1.6768 11.5486 1.45838C10.4789 1.23997 9.46525 0.804914 8.57001 0.18C8.40261 0.0638722 8.20374 0.00164413 8.00001 0.00164413C7.79627 0.00164413 7.5974 0.0638722 7.43001 0.18C6.53476 0.804914 5.52108 1.23997 4.45137 1.45838C3.38166 1.6768 2.27857 1.67394 1.21001 1.45C1.06394 1.41846 0.912671 1.42005 0.767306 1.45466C0.621942 1.48927 0.486181 1.55602 0.370006 1.65C0.253985 1.74412 0.160527 1.86304 0.0964981 1.99802C0.0324695 2.13299 -0.00050219 2.2806 5.78149e-06 2.43V9.88C-0.000883255 11.3137 0.340779 12.727 0.996541 14.002C1.6523 15.277 2.60319 16.3768 3.77001 17.21L7.42001 19.81C7.58937 19.9306 7.7921 19.9954 8.00001 19.9954C8.20791 19.9954 8.41064 19.9306 8.58001 19.81L12.23 17.21C13.3968 16.3768 14.3477 15.277 15.0035 14.002C15.6592 12.727 16.0009 11.3137 16 9.88V2.43C16.0005 2.2806 15.9675 2.13299 15.9035 1.99802C15.8395 1.86304 15.746 1.74412 15.63 1.65ZM14 9.88C14.0008 10.9948 13.7353 12.0936 13.2257 13.085C12.716 14.0765 11.977 14.9318 11.07 15.58L8.00001 17.77L4.93001 15.58C4.02304 14.9318 3.28399 14.0765 2.77435 13.085C2.26472 12.0936 1.99924 10.9948 2.00001 9.88V3.58C4.09643 3.75943 6.19605 3.27302 8.00001 2.19C9.80397 3.27302 11.9036 3.75943 14 3.58V9.88Z" fill="#0D0D0D"/>
</svg>
