<svg width="16" height="21" viewBox="0 0 16 21" fill="none" xmlns="http://www.w3.org/2000/svg">
<path d="M15.89 8.54998C15.8069 8.38507 15.6798 8.24638 15.5227 8.14931C15.3656 8.05223 15.1847 8.00054 15 7.99998H10V1.99998C10.0107 1.78067 9.94898 1.56391 9.82427 1.38318C9.69957 1.20245 9.51885 1.06779 9.31 0.999982C9.10923 0.933925 8.89268 0.933183 8.69146 0.997862C8.49024 1.06254 8.31468 1.18931 8.19 1.35998L0.189999 12.36C0.0897645 12.5048 0.0295775 12.6736 0.0155294 12.8492C0.00148127 13.0248 0.0340707 13.201 0.109999 13.36C0.179921 13.5417 0.301387 13.6991 0.459489 13.8128C0.61759 13.9265 0.805447 13.9915 0.999999 14H6V20C6.00015 20.2109 6.06697 20.4163 6.19089 20.5869C6.31482 20.7575 6.48951 20.8846 6.69 20.95C6.79047 20.9811 6.89483 20.998 7 21C7.15778 21.0004 7.31343 20.9635 7.45421 20.8922C7.59499 20.8209 7.71691 20.7174 7.81 20.59L15.81 9.58998C15.9177 9.44078 15.9822 9.26474 15.9963 9.08124C16.0105 8.89774 15.9737 8.71391 15.89 8.54998ZM8 16.92V13C8 12.7348 7.89464 12.4804 7.70711 12.2929C7.51957 12.1053 7.26521 12 7 12H3L8 5.07998V8.99998C8 9.2652 8.10536 9.51955 8.29289 9.70709C8.48043 9.89462 8.73478 9.99998 9 9.99998H13L8 16.92Z" fill="#0D0D0D"/>
</svg>
