<svg width="20" height="16" viewBox="0 0 20 16" fill="none" xmlns="http://www.w3.org/2000/svg">
<path d="M15.7071 4.29289C16.0976 4.68342 16.0976 5.31658 15.7071 5.70711L13.4142 8L15.7071 10.2929C16.0976 10.6834 16.0976 11.3166 15.7071 11.7071C15.3166 12.0976 14.6834 12.0976 14.2929 11.7071L12 9.41421L9.70711 11.7071C9.31658 12.0976 8.68342 12.0976 8.29289 11.7071C7.90237 11.3166 7.90237 10.6834 8.29289 10.2929L10.5858 8L8.29289 5.70711C7.90237 5.31658 7.90237 4.68342 8.29289 4.29289C8.68342 3.90237 9.31658 3.90237 9.70711 4.29289L12 6.58579L14.2929 4.29289C14.6834 3.90237 15.3166 3.90237 15.7071 4.29289Z" fill="#0D0D0D"/>
<path fill-rule="evenodd" clip-rule="evenodd" d="M20 1C20 0.447715 19.5523 0 19 0H7.45994C6.87609 0 6.32139 0.255125 5.94142 0.698417L0.798565 6.69842C0.156582 7.4474 0.156582 8.5526 0.798565 9.30158L5.94142 15.3016C6.32139 15.7449 6.87609 16 7.45994 16H19C19.5523 16 20 15.5523 20 15V1ZM18 14H7.45993L2.31708 8L7.45994 2H18V14Z" fill="#0D0D0D"/>
</svg>
