<svg width="20" height="20" viewBox="0 0 20 20" fill="none" xmlns="http://www.w3.org/2000/svg">
<path fill-rule="evenodd" clip-rule="evenodd" d="M10 0C4.47715 0 0 4.47715 0 10C0 15.5228 4.47715 20 10 20C15.5228 20 20 15.5228 20 10C20 4.47715 15.5228 0 10 0ZM14.7474 8.16436C15.1143 7.75158 15.0771 7.11951 14.6644 6.75259C14.2516 6.38567 13.6195 6.42285 13.2526 6.83564L8.66667 11.9948L6.74741 9.83564C6.38049 9.42285 5.74842 9.38567 5.33564 9.75259C4.92285 10.1195 4.88567 10.7516 5.25259 11.1644L7.91926 14.1644C8.10903 14.3779 8.38103 14.5 8.66667 14.5C8.9523 14.5 9.22431 14.3779 9.41408 14.1644L14.7474 8.16436Z" fill="#F9773B"/>
</svg>
