<svg width="20" height="16" viewBox="0 0 20 16" fill="none" xmlns="http://www.w3.org/2000/svg">
<path fill-rule="evenodd" clip-rule="evenodd" d="M7 0H17C17.7956 0 18.5587 0.316071 19.1213 0.87868C19.6839 1.44129 20 2.20435 20 3V5C19.9983 5.61894 19.8051 6.2222 19.4471 6.72707C19.089 7.23193 18.5835 7.61369 18 7.82V13C18 13.7956 17.6839 14.5587 17.1213 15.1213C16.5587 15.6839 15.7956 16 15 16H13C12.7348 16 12.4804 15.8946 12.2929 15.7071C12.1054 15.5196 12 15.2652 12 15V8H8V9C8 9.26522 7.89464 9.51957 7.70711 9.70711C7.51957 9.89464 7.26522 10 7 10C6.73478 10 6.48043 9.89464 6.29289 9.70711C6.10536 9.51957 6 9.26522 6 9V5H1C0.734784 5 0.48043 4.89464 0.292893 4.70711C0.105357 4.51957 0 4.26522 0 4C0 3.73478 0.105357 3.48043 0.292893 3.29289C0.48043 3.10536 0.734784 3 1 3H6V1C6 0.734784 6.10536 0.48043 6.29289 0.292893C6.48043 0.105357 6.73478 0 7 0ZM15.7071 13.7071C15.8946 13.5196 16 13.2652 16 13V8H14V14H15C15.2652 14 15.5196 13.8946 15.7071 13.7071ZM17.7071 5.70711C17.8946 5.51957 18 5.26522 18 5V3C18 2.73478 17.8946 2.48043 17.7071 2.29289C17.5196 2.10536 17.2652 2 17 2H16H14H8V6H17C17.2652 6 17.5196 5.89464 17.7071 5.70711Z" fill="#A1A1A1"/>
</svg>
