<svg width="56" height="56" viewBox="0 0 56 56" fill="none" xmlns="http://www.w3.org/2000/svg">
<path fill-rule="evenodd" clip-rule="evenodd" d="M28 53.8868C42.2969 53.8868 53.8868 42.2969 53.8868 28C53.8868 13.7031 42.2969 2.11321 28 2.11321C13.7031 2.11321 2.11321 13.7031 2.11321 28C2.11321 42.2969 13.7031 53.8868 28 53.8868ZM28 56C43.464 56 56 43.464 56 28C56 12.536 43.464 0 28 0C12.536 0 0 12.536 0 28C0 43.464 12.536 56 28 56Z" fill="#F9773B"/>
<path fill-rule="evenodd" clip-rule="evenodd" d="M32.7522 42.8313C33.0226 43.4135 32.7698 44.1047 32.1876 44.375C29.497 45.6244 26.8314 45.8537 24.6473 44.8512C22.432 43.8343 20.9876 41.6781 20.5132 38.7522L22.8077 38.3801C23.191 40.744 24.2738 42.1221 25.617 42.7386C26.9915 43.3695 28.9158 43.3314 31.2086 42.2667C31.7908 41.9963 32.4819 42.2492 32.7522 42.8313Z" fill="#F9773B"/>
<path fill-rule="evenodd" clip-rule="evenodd" d="M29.5849 31.1698V26.415H31.6981V33.283H25.8868V31.1698H29.5849Z" fill="#F9773B"/>
<path d="M42.7925 21.1323C42.7925 22.2993 41.8463 23.2455 40.6792 23.2455C39.5122 23.2455 38.566 22.2993 38.566 21.1323C38.566 19.9652 39.5122 19.019 40.6792 19.019C41.8463 19.019 42.7925 19.9652 42.7925 21.1323Z" fill="#F9773B"/>
<path d="M17.4339 21.1323C17.4339 22.2993 16.4878 23.2455 15.3207 23.2455C14.1536 23.2455 13.2075 22.2993 13.2075 21.1323C13.2075 19.9652 14.1536 19.019 15.3207 19.019C16.4878 19.019 17.4339 19.9652 17.4339 21.1323Z" fill="#F9773B"/>
</svg>
