<svg width="18" height="23" viewBox="0 0 18 23" fill="none" xmlns="http://www.w3.org/2000/svg">
<path d="M5.46774 7.39454L5.46549 7.39637L5.46335 7.39845L5.46774 7.39454ZM15.4219 7.20801C15.3523 7.14096 15.2751 7.08229 15.1918 7.0332C15.074 6.96387 14.9432 6.91943 14.8076 6.90264C14.6719 6.88586 14.5342 6.89708 14.4031 6.93562C14.2719 6.97415 14.1501 7.03918 14.045 7.12668C13.94 7.21418 13.854 7.3223 13.7924 7.44434C13.448 8.12303 12.9729 8.72703 12.3944 9.22168C12.4829 8.72329 12.5275 8.2181 12.5277 7.71191C12.5296 6.17201 12.1234 4.65912 11.3504 3.32728C10.5774 1.99543 9.46534 0.892201 8.12735 0.129914C7.97996 0.0463611 7.81376 0.00162358 7.64434 -0.000100779C7.47492 -0.00182513 7.30784 0.0395202 7.15878 0.120056C7.00971 0.200591 6.88355 0.317676 6.79214 0.460325C6.70072 0.602973 6.64704 0.766508 6.63614 0.935584C6.58018 1.88376 6.3323 2.8107 5.90753 3.66025C5.48276 4.5098 4.88993 5.26427 4.16497 5.87794L3.9345 6.06544C3.17641 6.57553 2.50539 7.20434 1.9472 7.92774C1.07952 9.02085 0.478445 10.3011 0.191657 11.6669C-0.0951319 13.0328 -0.0597503 14.4466 0.294995 15.7964C0.649741 17.1462 1.31409 18.3948 2.23537 19.4431C3.15664 20.4914 4.3095 21.3107 5.60251 21.836C5.75433 21.898 5.91908 21.9217 6.08223 21.905C6.24538 21.8883 6.40192 21.8318 6.53804 21.7403C6.67416 21.6488 6.78567 21.5252 6.86274 21.3805C6.93981 21.2357 6.98007 21.0742 6.97997 20.9102C6.97925 20.8041 6.96246 20.6987 6.93017 20.5977C6.70644 19.7567 6.64202 18.8813 6.74022 18.0166C7.68646 19.8013 9.20536 21.216 11.0527 22.0332C11.2782 22.1341 11.5331 22.1477 11.7681 22.0713C13.2276 21.6002 14.5425 20.7637 15.5877 19.6414C16.6329 18.519 17.3738 17.148 17.7399 15.6586C18.1061 14.1692 18.0853 12.611 17.6796 11.1319C17.2738 9.65287 16.4966 8.30212 15.4219 7.20801V7.20801ZM11.5171 20.0391C10.6454 19.5973 9.87643 18.977 9.26021 18.2185C8.644 17.4601 8.19432 16.5804 7.9404 15.6367C7.86285 15.319 7.80287 14.9972 7.76071 14.6729C7.73215 14.4663 7.63975 14.2739 7.49644 14.1224C7.35312 13.9709 7.16606 13.8681 6.9614 13.8281C6.89835 13.8157 6.83423 13.8095 6.76997 13.8096C6.59421 13.8095 6.42155 13.8558 6.26938 13.9438C6.11722 14.0317 5.99093 14.1582 5.90327 14.3106C5.07354 15.7417 4.65627 17.3746 4.6977 19.0284C3.96794 18.461 3.35805 17.7544 2.90338 16.9495C2.4487 16.1447 2.15829 15.2576 2.04897 14.3397C1.93965 13.4219 2.0136 12.4914 2.26652 11.6023C2.51945 10.7132 2.94632 9.88311 3.52241 9.16019C3.95982 8.59203 4.4875 8.09949 5.08441 7.70219C5.11026 7.68551 5.13504 7.66725 5.15863 7.6475C5.15863 7.6475 5.45532 7.40202 5.46546 7.3964C6.89016 6.19137 7.90347 4.57192 8.3642 2.76371C9.45377 3.77095 10.1803 5.10974 10.431 6.57222C10.6816 8.0347 10.4424 9.53903 9.75043 10.8516C9.65901 11.0268 9.62151 11.2251 9.64265 11.4215C9.6638 11.6179 9.74265 11.8037 9.86925 11.9554C9.99586 12.1071 10.1645 12.2179 10.354 12.2738C10.5435 12.3297 10.7453 12.3282 10.934 12.2696C12.4658 11.7894 13.8137 10.8515 14.7963 9.5821C15.3869 10.4544 15.773 11.4487 15.9258 12.491C16.0787 13.5332 15.9944 14.5965 15.6792 15.6017C15.364 16.6068 14.826 17.5278 14.1053 18.2961C13.3847 19.0645 12.4999 19.6602 11.517 20.0391L11.5171 20.0391Z" fill="#A1A1A1"/>
</svg>
