<svg width="16" height="21" viewBox="0 0 16 21" fill="none" xmlns="http://www.w3.org/2000/svg">
<path d="M15.89 8.55C15.8069 8.38508 15.6797 8.2464 15.5226 8.14932C15.3656 8.05224 15.1847 8.00056 15 8H9.99998V2C10.0107 1.78068 9.94896 1.56393 9.82426 1.3832C9.69955 1.20247 9.51883 1.0678 9.30998 0.999997C9.10921 0.93394 8.89267 0.933198 8.69145 0.997877C8.49022 1.06256 8.31467 1.18933 8.18998 1.36L0.189984 12.36C0.0897493 12.5049 0.0295623 12.6736 0.0155141 12.8492C0.00146601 13.0248 0.0340555 13.201 0.109984 13.36C0.179906 13.5417 0.301372 13.6991 0.459473 13.8128C0.617575 13.9265 0.805431 13.9916 0.999984 14H5.99998V20C6.00014 20.2109 6.06695 20.4163 6.19088 20.5869C6.3148 20.7575 6.48949 20.8846 6.68998 20.95C6.79046 20.9811 6.89481 20.998 6.99998 21C7.15777 21.0004 7.31341 20.9635 7.45419 20.8922C7.59497 20.821 7.71689 20.7174 7.80998 20.59L15.81 9.59C15.9177 9.44079 15.9822 9.26475 15.9963 9.08125C16.0104 8.89776 15.9736 8.71392 15.89 8.55V8.55ZM7.99998 16.92V13C7.99998 12.7348 7.89463 12.4804 7.70709 12.2929C7.51955 12.1054 7.2652 12 6.99998 12H2.99998L7.99998 5.08V9C7.99998 9.26521 8.10534 9.51957 8.29288 9.7071C8.48041 9.89464 8.73477 10 8.99998 10H13L7.99998 16.92Z" fill="#A1A1A1"/>
</svg>
