<svg width="13" height="22" viewBox="0 0 13 22" fill="none" xmlns="http://www.w3.org/2000/svg">
<path d="M7.99997 14H5.99997C5.73476 14 5.4804 14.1054 5.29287 14.2929C5.10533 14.4804 4.99997 14.7348 4.99997 15C4.99997 15.2652 5.10533 15.5196 5.29287 15.7071C5.4804 15.8946 5.73476 16 5.99997 16H7.99997C8.26519 16 8.51954 15.8946 8.70708 15.7071C8.89462 15.5196 8.99997 15.2652 8.99997 15C8.99997 14.7348 8.89462 14.4804 8.70708 14.2929C8.51954 14.1054 8.26519 14 7.99997 14ZM9.99997 7V4C9.99997 3.73478 9.89462 3.48043 9.70708 3.29289C9.51954 3.10536 9.26519 3 8.99997 3H7.99997V2H8.99997C9.26519 2 9.51954 1.89464 9.70708 1.70711C9.89462 1.51957 9.99997 1.26522 9.99997 0.999999C9.99997 0.734783 9.89462 0.480429 9.70708 0.292892C9.51954 0.105356 9.26519 -9.06355e-07 8.99997 -9.06355e-07H4.23581C3.37761 -0.00287674 2.53576 0.234752 1.80573 0.685943C1.07569 1.13713 0.486668 1.78384 0.105444 2.55273C-0.0124326 2.78989 -0.0314319 3.06412 0.052614 3.31526C0.13666 3.56641 0.316888 3.77397 0.553765 3.89241C0.790642 4.01085 1.06482 4.0305 1.31617 3.94705C1.56752 3.8636 1.7755 3.68386 1.8945 3.44727C2.11055 3.01136 2.44443 2.64472 2.85825 2.38891C3.27208 2.13311 3.74931 1.99838 4.23581 2H5.99997V3H4.99997C4.73476 3 4.4804 3.10536 4.29287 3.29289C4.10533 3.48043 3.99997 3.73478 3.99997 4V7C3.20459 7.00087 2.44203 7.31722 1.87961 7.87964C1.31719 8.44206 1.00084 9.20462 0.999974 10V19C1.00084 19.7954 1.31719 20.5579 1.87961 21.1204C2.44203 21.6828 3.20459 21.9991 3.99997 22H9.99997C10.7954 21.9991 11.5579 21.6828 12.1203 21.1204C12.6828 20.5579 12.9991 19.7954 13 19V10C12.9991 9.20462 12.6828 8.44206 12.1203 7.87964C11.5579 7.31722 10.7954 7.00087 9.99997 7ZM5.99997 5H7.99997V7H5.99997V5ZM11 19C10.9996 19.2651 10.8942 19.5193 10.7067 19.7067C10.5192 19.8942 10.2651 19.9997 9.99997 20H3.99997C3.73486 19.9997 3.48071 19.8942 3.29325 19.7067C3.10579 19.5193 3.00032 19.2651 2.99997 19V10C3.00032 9.73489 3.10579 9.48073 3.29325 9.29327C3.48071 9.10581 3.73486 9.00034 3.99997 9H9.99997C10.2651 9.00034 10.5192 9.10581 10.7067 9.29327C10.8942 9.48073 10.9996 9.73489 11 10V19Z" fill="#A1A1A1"/>
</svg>
