<svg width="14" height="10" viewBox="0 0 14 10" fill="none" xmlns="http://www.w3.org/2000/svg">
<path d="M0.333374 0.833333C0.333374 0.373096 0.70647 0 1.16671 0H12.8334C13.2936 0 13.6667 0.373096 13.6667 0.833333C13.6667 1.29357 13.2936 1.66667 12.8334 1.66667H1.16671C0.70647 1.66667 0.333374 1.29357 0.333374 0.833333ZM0.333374 5C0.333374 4.53976 0.70647 4.16667 1.16671 4.16667H12.8334C13.2936 4.16667 13.6667 4.53976 13.6667 5C13.6667 5.46024 13.2936 5.83333 12.8334 5.83333H1.16671C0.70647 5.83333 0.333374 5.46024 0.333374 5ZM0.333374 9.16667C0.333374 8.70643 0.70647 8.33333 1.16671 8.33333H12.8334C13.2936 8.33333 13.6667 8.70643 13.6667 9.16667C13.6667 9.6269 13.2936 10 12.8334 10H1.16671C0.70647 10 0.333374 9.6269 0.333374 9.16667Z" fill="#A1A1A1"/>
</svg>
