<svg width="21" height="21" viewBox="0 0 21 21" fill="none" xmlns="http://www.w3.org/2000/svg">
<path d="M2.83294 2H7.32289L8.7701 5.61803L6.44522 7.16795C6.16702 7.35342 5.99992 7.66565 5.99992 8C6.00246 8.09363 5.99992 8.001 5.99992 8.001L5.99992 8.00205L5.99993 8.00429L5.99996 8.00933L6.00011 8.02167C6.00025 8.03089 6.00051 8.04208 6.00093 8.05519C6.00177 8.0814 6.0033 8.1153 6.00604 8.15636C6.01152 8.23846 6.02183 8.34944 6.04122 8.48517C6.07998 8.75646 6.1552 9.12811 6.30124 9.56623C6.59447 10.4459 7.17065 11.5849 8.29281 12.7071C9.41498 13.8293 10.554 14.4054 11.4337 14.6987C11.8718 14.8447 12.2435 14.9199 12.5147 14.9587C12.6505 14.9781 12.7615 14.9884 12.8436 14.9939C12.8846 14.9966 12.9185 14.9981 12.9447 14.999C12.9578 14.9994 12.969 14.9997 12.9782 14.9998L12.9906 15L12.9956 15L12.9979 15L12.9989 15C12.9989 15 13.1106 14.9939 12.9999 15C13.3787 15 13.725 14.786 13.8943 14.4472L14.564 13.1078L18.9999 13.8471V18.167C16.8888 18.4723 11.1873 18.7732 6.70703 14.2929C2.22673 9.81259 2.52764 4.1111 2.83294 2ZM8.07357 8.48609L9.8795 7.28213C10.6664 6.75751 10.9783 5.75338 10.6271 4.87525L9.17984 1.25722C8.87611 0.497902 8.1407 0 7.32289 0H2.7807C1.87219 0 1.01701 0.631162 0.867863 1.6169C0.528553 3.8595 0.0667062 10.481 5.29281 15.7071C10.5189 20.9332 17.1404 20.4714 19.383 20.1321C20.3688 19.9829 20.9999 19.1277 20.9999 18.2192V13.8471C20.9999 12.8694 20.2931 12.0351 19.3287 11.8743L14.8928 11.135C14.0268 10.9907 13.1678 11.4281 12.7752 12.2134L12.4287 12.9064C12.3198 12.8796 12.1982 12.8453 12.0661 12.8013C11.4459 12.5946 10.5849 12.1707 9.70703 11.2929C8.82919 10.4151 8.40537 9.55407 8.1986 8.93377C8.14273 8.76616 8.10251 8.61545 8.07357 8.48609Z" fill="#A1A1A1"/>
</svg>
