<svg width="18" height="18" viewBox="0 0 18 18" fill="none" xmlns="http://www.w3.org/2000/svg">
<path d="M11 1C11 0.447715 11.4477 0 12 0H16C17.1046 0 18 0.895431 18 2V6C18 6.55228 17.5523 7 17 7V7C16.4477 7 16 6.55228 16 6V3C16 2.44772 15.5523 2 15 2H12C11.4477 2 11 1.55228 11 1V1ZM6 0C6.55228 0 7 0.447715 7 1V1C7 1.55228 6.55228 2 6 2H3C2.44772 2 2 2.44772 2 3V6C2 6.55228 1.55228 7 1 7V7C0.447715 7 0 6.55228 0 6V2C0 0.89543 0.895431 0 2 0H6ZM12 18C11.4477 18 11 17.5523 11 17V17C11 16.4477 11.4477 16 12 16H15C15.5523 16 16 15.5523 16 15V12C16 11.4477 16.4477 11 17 11V11C17.5523 11 18 11.4477 18 12V16C18 17.1046 17.1046 18 16 18H12ZM7 17C7 17.5523 6.55228 18 6 18H2C0.89543 18 0 17.1046 0 16V12C0 11.4477 0.447715 11 1 11V11C1.55228 11 2 11.4477 2 12V15C2 15.5523 2.44772 16 3 16H6C6.55228 16 7 16.4477 7 17V17Z" fill="#A1A1A1"/>
</svg>
