<svg width="22" height="18" viewBox="0 0 22 18" fill="none" xmlns="http://www.w3.org/2000/svg">
<path d="M20.4697 17.5303C20.7626 17.8232 21.2374 17.8232 21.5303 17.5303C21.8232 17.2374 21.8232 16.7626 21.5303 16.4697L20.4697 17.5303ZM20.0303 14.9697C19.7374 14.6768 19.2626 14.6768 18.9697 14.9697C18.6768 15.2626 18.6768 15.7374 18.9697 16.0303L20.0303 14.9697ZM6 11.75C6.41421 11.75 6.75 11.4142 6.75 11C6.75 10.5858 6.41421 10.25 6 10.25V11.75ZM1 10.25C0.585786 10.25 0.25 10.5858 0.25 11C0.25 11.4142 0.585786 11.75 1 11.75V10.25ZM6 6.75C6.41421 6.75 6.75 6.41421 6.75 6C6.75 5.58579 6.41421 5.25 6 5.25V6.75ZM1 5.25C0.585786 5.25 0.25 5.58579 0.25 6C0.25 6.41421 0.585786 6.75 1 6.75V5.25ZM14 1.75C14.4142 1.75 14.75 1.41421 14.75 1C14.75 0.585786 14.4142 0.25 14 0.25V1.75ZM1 0.25C0.585786 0.25 0.25 0.585786 0.25 1C0.25 1.41421 0.585786 1.75 1 1.75V0.25ZM21.5303 16.4697L20.0303 14.9697L18.9697 16.0303L20.4697 17.5303L21.5303 16.4697ZM20.25 11C20.25 13.8995 17.8995 16.25 15 16.25V17.75C18.7279 17.75 21.75 14.7279 21.75 11H20.25ZM15 16.25C12.1005 16.25 9.75 13.8995 9.75 11H8.25C8.25 14.7279 11.2721 17.75 15 17.75V16.25ZM9.75 11C9.75 8.1005 12.1005 5.75 15 5.75V4.25C11.2721 4.25 8.25 7.27208 8.25 11H9.75ZM15 5.75C17.8995 5.75 20.25 8.1005 20.25 11H21.75C21.75 7.27208 18.7279 4.25 15 4.25V5.75ZM6 10.25H1V11.75H6V10.25ZM6 5.25H1V6.75H6V5.25ZM14 0.25H1V1.75H14V0.25Z" fill="#28303F"/>
</svg>
