<svg width="24" height="24" viewBox="0 0 24 24" fill="none" xmlns="http://www.w3.org/2000/svg">
<path d="M21.71 15.58L17.19 11.07C17.2846 10.6094 17.3315 10.1402 17.33 9.67001C17.3297 8.38066 17.0043 7.1122 16.384 5.98189C15.7636 4.85158 14.8684 3.89588 13.7809 3.20315C12.6935 2.51041 11.4489 2.10299 10.1624 2.01855C8.87578 1.9341 7.58868 2.17535 6.42001 2.72001C6.27195 2.78764 6.14264 2.8904 6.0433 3.01936C5.94397 3.14832 5.87762 3.29958 5.85001 3.46001C5.82252 3.61839 5.83361 3.78107 5.88235 3.93426C5.93109 4.08745 6.01605 4.22663 6.13001 4.34001L10.48 8.68001L8.68001 10.48L4.34001 6.13001C4.22568 6.01781 4.08607 5.93472 3.93293 5.88773C3.77979 5.84075 3.6176 5.83124 3.46001 5.86001C3.3006 5.8866 3.15 5.95144 3.02112 6.04897C2.89224 6.1465 2.78892 6.27381 2.72001 6.42001C2.17354 7.59251 1.9325 8.88419 2.01931 10.1749C2.10612 11.4656 2.51796 12.7133 3.21653 13.8021C3.91509 14.8908 4.87768 15.7852 6.01476 16.4021C7.15183 17.0189 8.42644 17.3381 9.72001 17.33C10.1902 17.3315 10.6594 17.2846 11.12 17.19L15.63 21.71C15.723 21.8037 15.8336 21.8781 15.9554 21.9289C16.0773 21.9797 16.208 22.0058 16.34 22.0058C16.472 22.0058 16.6027 21.9797 16.7246 21.9289C16.8465 21.8781 16.9571 21.8037 17.05 21.71C17.1437 21.617 17.2181 21.5064 17.2689 21.3846C17.3197 21.2627 17.3458 21.132 17.3458 21C17.3458 20.868 17.3197 20.7373 17.2689 20.6154C17.2181 20.4936 17.1437 20.383 17.05 20.29L12.15 15.39C12.0276 15.2684 11.8757 15.1805 11.7092 15.1349C11.5428 15.0894 11.3673 15.0877 11.2 15.13C10.7172 15.2593 10.2198 15.3265 9.72001 15.33C8.97206 15.3366 8.2302 15.1951 7.53715 14.9138C6.84411 14.6324 6.21359 14.2167 5.6819 13.6906C5.15022 13.1645 4.72789 12.5384 4.43923 11.8484C4.15058 11.1583 4.0013 10.418 4.00001 9.67001C3.99872 9.33502 4.02548 9.00052 4.08001 8.67001L8.00001 12.6C8.09298 12.6937 8.20358 12.7681 8.32544 12.8189C8.4473 12.8697 8.578 12.8958 8.71001 12.8958C8.84203 12.8958 8.97273 12.8697 9.09459 12.8189C9.21645 12.7681 9.32705 12.6937 9.42001 12.6L12.6 9.39001C12.7803 9.20354 12.881 8.95434 12.881 8.695C12.881 8.43567 12.7803 8.18647 12.6 8.00001L8.71001 4.08001C9.0406 4.02602 9.37505 3.99926 9.71001 4.00001C11.2121 4.00265 12.6517 4.6012 13.7128 5.66424C14.774 6.72729 15.37 8.16796 15.37 9.67001C15.3665 10.1698 15.2993 10.6672 15.17 11.15C15.1277 11.3173 15.1294 11.4928 15.1749 11.6592C15.2205 11.8257 15.3084 11.9776 15.43 12.1L20.33 17C20.5183 17.1883 20.7737 17.2941 21.04 17.2941C21.3063 17.2941 21.5617 17.1883 21.75 17C21.9383 16.8117 22.0441 16.5563 22.0441 16.29C22.0441 16.0237 21.9383 15.7683 21.75 15.58H21.71Z" fill="#A1A1A1"/>
</svg>
