<svg width="14" height="14" viewBox="0 0 14 14" fill="none" xmlns="http://www.w3.org/2000/svg">
<path d="M6.99994 0.666667C7.25245 0.666667 7.48329 0.809335 7.59622 1.03519L9.31549 4.47373L13.0959 5.02361C13.347 5.06013 13.5556 5.23602 13.634 5.47733C13.7124 5.71864 13.647 5.98354 13.4653 6.16067L10.7139 8.8433L11.3329 12.6257C11.3738 12.8756 11.2695 13.1272 11.0637 13.2749C10.8579 13.4226 10.5862 13.441 10.3625 13.3222L6.99994 11.538L3.63742 13.3222C3.41366 13.441 3.14196 13.4226 2.93618 13.2749C2.73041 13.1272 2.62612 12.8756 2.66702 12.6257L3.28596 8.8433L0.534538 6.16067C0.352868 5.98354 0.287494 5.71864 0.365898 5.47733C0.444303 5.23602 0.652891 5.06013 0.903978 5.02361L4.68438 4.47373L6.40365 1.03519C6.51658 0.809335 6.74742 0.666667 6.99994 0.666667ZM6.99994 2.82405L5.72122 5.38148C5.62366 5.57661 5.43679 5.71166 5.2209 5.74306L2.4322 6.14869L4.46534 8.131C4.62113 8.2829 4.69299 8.50126 4.65785 8.71599L4.19994 11.5143L6.68746 10.1944C6.88288 10.0907 7.117 10.0907 7.31241 10.1944L9.79993 11.5143L9.34202 8.71599C9.30688 8.50126 9.37875 8.2829 9.53454 8.131L11.5677 6.14869L8.77898 5.74306C8.56309 5.71166 8.37622 5.57661 8.27865 5.38148L6.99994 2.82405Z" fill="#A1A1A1"/>
</svg>
