<svg width="14" height="14" viewBox="0 0 14 14" fill="none" xmlns="http://www.w3.org/2000/svg">
<path d="M6.99994 0.666672C7.25245 0.666672 7.48329 0.80934 7.59622 1.0352L9.31549 4.47374L13.0959 5.02361C13.347 5.06014 13.5556 5.23602 13.634 5.47733C13.7124 5.71865 13.647 5.98354 13.4653 6.16067L10.7139 8.8433L11.3329 12.6257C11.3738 12.8757 11.2695 13.1272 11.0637 13.2749C10.8579 13.4226 10.5862 13.441 10.3625 13.3222L6.99994 11.538L3.63742 13.3222C3.41366 13.441 3.14196 13.4226 2.93618 13.2749C2.73041 13.1272 2.62612 12.8757 2.66702 12.6257L3.28596 8.8433L0.534538 6.16067C0.352868 5.98354 0.287494 5.71865 0.365898 5.47733C0.444303 5.23602 0.652891 5.06014 0.903978 5.02361L4.68438 4.47374L6.40365 1.0352C6.51658 0.80934 6.74742 0.666672 6.99994 0.666672Z" fill="#A1A1A1"/>
</svg>
