<svg width="18" height="16" viewBox="0 0 18 16" fill="none" xmlns="http://www.w3.org/2000/svg">
<path d="M0.666626 2.58332C0.666626 1.66285 1.41282 0.916656 2.33329 0.916656H15.6666C16.5871 0.916656 17.3333 1.66285 17.3333 2.58332V13.4167C17.3333 14.3371 16.5871 15.0833 15.6666 15.0833H2.33329C1.41282 15.0833 0.666626 14.3371 0.666626 13.4167V2.58332ZM8.16663 2.58332H2.33329V5.08332H8.16663V2.58332ZM9.83329 2.58332V5.08332H15.6666V2.58332H9.83329ZM15.6666 6.74999H9.83329V9.24999H15.6666V6.74999ZM15.6666 10.9167H9.83329V13.4167H15.6666V10.9167ZM8.16663 13.4167V10.9167H2.33329V13.4167H8.16663ZM2.33329 9.24999H8.16663V6.74999H2.33329V9.24999Z" fill="#0D0D0D"/>
</svg>
