<svg width="14" height="22" viewBox="0 0 14 22" fill="none" xmlns="http://www.w3.org/2000/svg">
<path d="M8.00003 14.28V9.5C8.00003 9.23478 7.89467 8.98043 7.70713 8.79289C7.5196 8.60536 7.26524 8.5 7.00003 8.5C6.73481 8.5 6.48046 8.60536 6.29292 8.79289C6.10538 8.98043 6.00003 9.23478 6.00003 9.5V14.28C5.69775 14.4545 5.44641 14.7051 5.27098 15.0068C5.09555 15.3086 5.00213 15.651 5.00003 16C5.00003 16.5304 5.21074 17.0391 5.58581 17.4142C5.96089 17.7893 6.46959 18 7.00003 18C7.53046 18 8.03917 17.7893 8.41424 17.4142C8.78931 17.0391 9.00003 16.5304 9.00003 16C8.99792 15.651 8.90451 15.3086 8.72908 15.0068C8.55365 14.7051 8.3023 14.4545 8.00003 14.28ZM11.5 12V4.5C11.5 3.30653 11.0259 2.16193 10.182 1.31802C9.33809 0.474106 8.1935 0 7.00003 0C5.80655 0 4.66196 0.474106 3.81805 1.31802C2.97413 2.16193 2.50003 3.30653 2.50003 4.5V12C1.80887 12.7832 1.33416 13.7333 1.12284 14.7562C0.911524 15.7792 0.97093 16.8396 1.29518 17.8326C1.61943 18.8255 2.1973 19.7166 2.97161 20.4177C3.74592 21.1188 4.68985 21.6056 5.71003 21.83C6.13382 21.9266 6.56568 21.9835 7.00003 22C8.16065 22.0054 9.29793 21.6741 10.274 21.0461C11.2502 20.4182 12.0232 19.5207 12.4995 18.4623C12.9758 17.4038 13.1348 16.23 12.9575 15.083C12.7801 13.936 12.2738 12.8651 11.5 12V12ZM9.50003 19.07C8.70438 19.7755 7.66107 20.136 6.59961 20.0722C5.53816 20.0085 4.5455 19.5256 3.84003 18.73C3.13455 17.9344 2.77404 16.891 2.8378 15.8296C2.90157 14.7681 3.38438 13.7755 4.18003 13.07C4.27452 12.9774 4.34969 12.8669 4.40118 12.7451C4.45268 12.6232 4.47948 12.4923 4.48003 12.36V4.5C4.48003 3.83696 4.74342 3.20107 5.21226 2.73223C5.6811 2.26339 6.31699 2 6.98003 2C7.64307 2 8.27895 2.26339 8.74779 2.73223C9.21664 3.20107 9.48003 3.83696 9.48003 4.5V12.44C9.48058 12.5723 9.50738 12.7032 9.55887 12.8251C9.61037 12.9469 9.68554 13.0574 9.78003 13.15C10.1888 13.5449 10.5087 14.0223 10.7185 14.5505C10.9282 15.0787 11.023 15.6456 10.9965 16.2133C10.97 16.781 10.8228 17.3366 10.5648 17.843C10.3068 18.3493 9.94378 18.7949 9.50003 19.15V19.07Z" fill="#A1A1A1"/>
</svg>
