<svg width="22" height="20" viewBox="0 0 22 20" fill="none" xmlns="http://www.w3.org/2000/svg">
<path d="M11 12C10.4477 12 9.99999 11.5523 9.99999 11V8C9.99999 7.44772 10.4477 7 11 7C11.5523 7 12 7.44772 12 8V11C12 11.5523 11.5523 12 11 12Z" fill="#A1A1A1"/>
<path d="M9.49999 14.5C9.49999 13.6716 10.1716 13 11 13C11.8284 13 12.5 13.6716 12.5 14.5C12.5 15.3284 11.8284 16 11 16C10.1716 16 9.49999 15.3284 9.49999 14.5Z" fill="#A1A1A1"/>
<path d="M9.23015 1.2156C9.97998 -0.20907 12.02 -0.209079 12.7698 1.2156L21.1135 17.0685C21.8144 18.4003 20.8486 20 19.3436 20H2.65635C1.15133 20 0.185556 18.4003 0.886514 17.0685L9.23015 1.2156ZM19.3436 18L11 2.1471L2.65635 18L19.3436 18Z" fill="#A1A1A1"/>
</svg>
